<?xml version="1.0"?>
<svg width="640" height="480" xmlns="http://www.w3.org/2000/svg" xmlns:svg="http://www.w3.org/2000/svg">
 <!-- Created with SVG-edit - https://github.com/SVG-Edit/svgedit-->
 <g class="layer">
  <title>Layer 1</title>
  <path d="m103.499499,119.291495l0,0c0,18.335847 48.912898,33.199999 109.250018,33.199999c60.337091,0 109.249974,-14.864152 109.249974,-33.199999l0,0c0,-18.335858 48.912913,-33.199999 109.250033,-33.199999c60.33712,0 109.249974,14.864152 109.249974,33.199999l0,265.599993c0,-18.335847 -48.912869,-33.200021 -109.249974,-33.200021c-60.33712,0 -109.250033,14.864163 -109.250033,33.200021c0,18.335836 -48.912884,33.199988 -109.249974,33.199988c-60.33712,0 -109.250018,-14.864152 -109.250018,-33.199988l0,-265.599993z" fill="#aaffaa" id="svg_2" stroke="#000000" stroke-width="5"/>
  <path d="m456.992968,205.381697c-4.481243,-3.495587 -9.604475,-1.32462 -14.537269,-1.587146c-4.320258,-3.702155 -9.57249,0.783441 -13.643922,-2.781781c-5.265194,-4.696322 3.862106,-7.636769 1.915269,-13.21207c-0.218593,-8.026871 -3.655914,-15.297356 -7.269335,-22.043105c-2.55898,-5.363532 -1.651933,-11.527133 -2.47546,-17.266578c-2.956405,-4.120857 -5.909365,-9.222689 -2.3916,-14.314084c3.973528,-4.293643 2.105767,-9.942183 0.544295,-14.907436c4.01774,1.181807 8.629413,6.564304 13.915201,5.486758c3.594735,-2.315006 5.77694,-0.026415 6.376671,4.210724c1.884471,5.441544 2.984148,12.882992 8.931168,14.638078c6.246324,1.783496 13.240143,2.1796 18.180207,7.412235c9.033486,8.463043 13.222126,21.804751 12.86778,34.664263c0.818215,6.013727 8.364416,2.822095 12.098534,3.709001c6.262043,-0.277919 12.273458,1.689026 18.334368,3.039252c5.409593,1.439039 9.991833,-3.111069 15.07483,-3.656598c0.85883,5.258214 -5.814602,7.449079 -9.459367,9.069494c-4.32672,1.840618 -9.010146,1.884157 -13.454704,0.534297c-9.608491,-2.395555 -19.792379,-1.76676 -28.922889,2.44611c-4.927877,1.81472 -9.713104,5.250851 -15.073752,4.82109l-1.010024,-0.262522l0,0.000011l0,0.000007z" fill="#ffffaa" id="svg_3" stroke="#000000" stroke-dasharray="null" stroke-linecap="null" stroke-linejoin="null" stroke-width="5"/>
  <text fill="#000000" font-family="serif" font-size="24" id="svg_5" stroke="#000000" stroke-dasharray="null" stroke-linecap="null" stroke-linejoin="null" stroke-width="0" text-anchor="middle" transform="matrix(2.63659 0 0 2.81883 -469.113 -414.863)" x="299.826227" xml:space="preserve" y="245.797668">D.I.V.G</text>
 </g>
</svg>